<svg xmlns="http://www.w3.org/2000/svg" width="100" height="100" viewBox="0 0 100 100"><path fill-rule="evenodd" d="M22 36H80Q82 36 82 38V46Q82 48 80 48H22Q20 48 20 46V38Q20 36 22 36ZM28 38V43H30V38ZM36 38V43H38V38ZM44 38V43H46V38ZM52 38V43H54V38ZM68 38V43H70V38ZM76 38V43H78V38Z" fill="#0FA3A3"/><rect x="24" y="48" width="9" height="22" rx="2" fill="#0FA3A3"/><rect x="56" y="28" width="13" height="20" rx="3" fill="#067070"/><rect x="59.5" y="48" width="6" height="15" rx="2" fill="#067070"/></svg>